<svg width="52" height="20" viewBox="0 0 52 20" fill="none" xmlns="http://www.w3.org/2000/svg">
<g clip-path="url(#clip0_1829_45560)">
<path d="M3.71619 6.74884C3.71619 6.55432 3.78644 6.45705 3.92693 6.45705C4.14307 6.45705 4.36461 6.50568 4.59156 6.60295C4.81851 6.6894 5.06166 6.75965 5.32103 6.81368C6.18559 4.96568 7.17984 3.7607 8.30377 3.19874C8.69282 3.00421 9.08188 2.90695 9.47093 2.90695C10.195 2.91775 10.6813 3.09067 10.9299 3.42568C11.1892 3.7607 11.3189 4.19298 11.3189 4.72253C11.3081 5.72758 10.8758 6.52189 10.0221 7.10547C9.16833 7.67825 8.12545 7.99705 6.89345 8.06189C6.58005 8.89404 6.33689 9.78021 6.16398 10.7204C6.58545 10.5583 7.1258 10.4773 7.78503 10.4773C7.87149 11.1581 8.02279 11.6444 8.23893 11.9362C8.45507 12.228 8.69282 12.3739 8.95219 12.3739C9.22237 12.3739 9.44391 12.3091 9.61682 12.1794C9.80054 12.0497 9.95724 11.9038 10.0869 11.7417C10.2274 11.5796 10.3409 11.4337 10.4273 11.304C10.5246 11.1743 10.6165 11.1095 10.7029 11.1095C10.8866 11.1095 10.9785 11.2716 10.9785 11.5958C10.9785 12.2442 10.8164 12.7846 10.4922 13.2168C10.168 13.6383 9.67086 13.8491 9.00082 13.8491C7.95254 13.8491 7.20686 13.5735 6.76377 13.0223C7.00152 15.3999 7.1204 16.8156 7.1204 17.2695C7.1204 18.08 6.86644 18.6582 6.35851 19.004C5.93703 19.2958 5.39668 19.4417 4.73745 19.4417C4.08903 19.4417 3.63514 19.2904 3.37577 18.9878C3.12721 18.696 3.00293 18.3448 3.00293 17.9341C3.00293 15.3296 3.37577 12.7089 4.12145 10.072C4.35921 9.22905 4.62938 8.44014 4.93198 7.70526C4.12145 7.34863 3.71619 7.02982 3.71619 6.74884ZM5.33724 18.1935C5.46693 18.1935 5.5858 18.0908 5.69387 17.8855C5.80195 17.6909 5.85598 17.4802 5.85598 17.2533C5.85598 16.5076 5.75331 15.362 5.54798 13.8166C5.2778 14.9298 5.09409 16.0375 4.99682 17.1398C4.97521 17.3775 4.9644 17.5234 4.9644 17.5775C4.9644 17.9881 5.08868 18.1935 5.33724 18.1935ZM9.34124 4.51179C9.1251 4.51179 8.82791 4.71712 8.44966 5.12779C8.08223 5.53846 7.70398 6.16526 7.31493 7.00821C8.10384 6.66239 8.62258 6.39761 8.87114 6.21389C9.37907 5.85726 9.63303 5.43039 9.63303 4.93326C9.63303 4.65228 9.53577 4.51179 9.34124 4.51179ZM15.566 13.2331C16.4089 13.2331 17.2248 12.898 18.0137 12.228C18.3055 11.9794 18.5433 11.7525 18.727 11.5472C18.9107 11.331 19.0512 11.2229 19.1485 11.2229C19.2998 11.2229 19.3754 11.3742 19.3754 11.6768C19.3754 11.9794 19.2944 12.3199 19.1323 12.6981C18.9702 13.0655 18.7 13.4276 18.3217 13.7842C17.3923 14.6596 16.1171 15.0973 14.4961 15.0973C13.21 15.0973 12.3347 14.6326 11.87 13.7032C11.7079 13.3789 11.6268 12.9142 11.6268 12.3091C11.6268 11.7039 11.7457 11.0771 11.9834 10.4286C12.2212 9.7694 12.5346 9.20203 12.9236 8.72653C13.3235 8.25102 13.7828 7.88358 14.3015 7.62421C14.8203 7.35404 15.3714 7.21895 15.955 7.21895C16.5494 7.21895 17.0033 7.36484 17.3167 7.65663C17.6409 7.94842 17.803 8.32667 17.803 8.79137C17.803 9.25607 17.6841 9.63972 17.4464 9.94232C17.2194 10.2341 16.9222 10.4827 16.5548 10.688C16.1874 10.8825 15.7767 11.0608 15.3228 11.2229C14.8797 11.3742 14.442 11.5472 14.0097 11.7417V12.1469C14.0206 12.536 14.1827 12.8116 14.4961 12.9737C14.8095 13.1358 15.1661 13.2222 15.566 13.2331ZM15.2904 8.66168C14.7284 8.66168 14.3394 9.31551 14.1232 10.6232C14.3502 10.4719 14.5609 10.3368 14.7554 10.2179C14.9608 10.099 15.1391 9.98554 15.2904 9.87747C15.6146 9.63972 15.7821 9.36954 15.7929 9.06695C15.7929 8.79677 15.6254 8.66168 15.2904 8.66168ZM22.1307 15.0486C21.05 15.0486 20.5097 14.0382 20.5097 12.0173C20.5097 10.9149 20.6447 9.9153 20.9149 9.01832C21.3364 7.63502 21.8119 6.94337 22.3415 6.94337C22.6549 6.94337 22.9034 7.15411 23.0871 7.57558C23.2384 7.89979 23.3087 8.2186 23.2979 8.532C23.2979 8.96428 23.1682 9.72618 22.9088 10.8177C22.6603 11.7687 22.536 12.3577 22.536 12.5846C22.536 12.8116 22.59 12.9683 22.6981 13.0547C22.817 13.1412 22.952 13.1844 23.1033 13.1844C23.2655 13.1844 23.4654 13.0818 23.7031 12.8764C23.9409 12.6711 24.1786 12.4495 24.4164 12.2118C24.6542 11.9632 24.8703 11.7363 25.0648 11.5309C25.2702 11.3256 25.4106 11.2229 25.4863 11.2229C25.6376 11.2229 25.7132 11.4067 25.7132 11.7741C25.7132 12.5306 25.3296 13.2709 24.5623 13.9949C23.8058 14.7082 22.9953 15.0594 22.1307 15.0486ZM22.7953 5.63032C22.5036 5.19804 22.3577 4.73333 22.3577 4.23621C22.3577 3.73909 22.4333 3.32842 22.5846 3.00421C22.7467 2.66919 22.898 2.42604 23.0385 2.27474C23.179 2.11263 23.3411 2.03158 23.5248 2.03158C23.8274 2.03158 24.103 2.25853 24.3516 2.71242C24.6001 3.15551 24.7244 3.52835 24.7244 3.83095C24.7244 4.39291 24.5245 4.836 24.1246 5.16021C23.7356 5.47361 23.2925 5.63032 22.7953 5.63032ZM26.832 6.74884C26.832 6.55432 26.9023 6.45705 27.0428 6.45705C27.2589 6.45705 27.4804 6.50568 27.7074 6.60295C27.9343 6.6894 28.1775 6.75965 28.4369 6.81368C29.3014 4.96568 30.2957 3.7607 31.4196 3.19874C31.8087 3.00421 32.1977 2.90695 32.5868 2.90695C33.3108 2.91775 33.7971 3.09067 34.0457 3.42568C34.3051 3.7607 34.4348 4.19298 34.4348 4.72253C34.4239 5.72758 33.9917 6.52189 33.1379 7.10547C32.2842 7.67825 31.2413 7.99705 30.0093 8.06189C29.6959 8.89404 29.4527 9.78021 29.2798 10.7204C29.7013 10.5583 30.2416 10.4773 30.9009 10.4773C30.9873 11.1581 31.1386 11.6444 31.3548 11.9362C31.5709 12.228 31.8087 12.3739 32.068 12.3739C32.3382 12.3739 32.5597 12.3091 32.7327 12.1794C32.9164 12.0497 33.0731 11.9038 33.2028 11.7417C33.3432 11.5796 33.4567 11.4337 33.5432 11.304C33.6404 11.1743 33.7323 11.1095 33.8188 11.1095C34.0025 11.1095 34.0943 11.2716 34.0943 11.5958C34.0943 12.2442 33.9322 12.7846 33.608 13.2168C33.2838 13.6383 32.7867 13.8491 32.1167 13.8491C31.0684 13.8491 30.3227 13.5735 29.8796 13.0223C30.1174 15.3999 30.2362 16.8156 30.2362 17.2695C30.2362 18.08 29.9823 18.6582 29.4743 19.004C29.0529 19.2958 28.5125 19.4417 27.8533 19.4417C27.2049 19.4417 26.751 19.2904 26.4916 18.9878C26.243 18.696 26.1188 18.3448 26.1188 17.9341C26.1188 15.3296 26.4916 12.7089 27.2373 10.072C27.475 9.22905 27.7452 8.44014 28.0478 7.70526C27.2373 7.34863 26.832 7.02982 26.832 6.74884ZM28.4531 18.1935C28.5828 18.1935 28.7016 18.0908 28.8097 17.8855C28.9178 17.6909 28.9718 17.4802 28.9718 17.2533C28.9718 16.5076 28.8691 15.362 28.6638 13.8166C28.3936 14.9298 28.2099 16.0375 28.1127 17.1398C28.091 17.3775 28.0802 17.5234 28.0802 17.5775C28.0802 17.9881 28.2045 18.1935 28.4531 18.1935ZM32.4571 4.51179C32.2409 4.51179 31.9437 4.71712 31.5655 5.12779C31.1981 5.53846 30.8198 6.16526 30.4308 7.00821C31.2197 6.66239 31.7384 6.39761 31.987 6.21389C32.4949 5.85726 32.7489 5.43039 32.7489 4.93326C32.7489 4.65228 32.6516 4.51179 32.4571 4.51179ZM38.6818 13.2331C39.5247 13.2331 40.3407 12.898 41.1296 12.228C41.4214 11.9794 41.6591 11.7525 41.8428 11.5472C42.0266 11.331 42.1671 11.2229 42.2643 11.2229C42.4156 11.2229 42.4913 11.3742 42.4913 11.6768C42.4913 11.9794 42.4102 12.3199 42.2481 12.6981C42.086 13.0655 41.8158 13.4276 41.4376 13.7842C40.5082 14.6596 39.2329 15.0973 37.6119 15.0973C36.3259 15.0973 35.4505 14.6326 34.9858 13.7032C34.8237 13.3789 34.7426 12.9142 34.7426 12.3091C34.7426 11.7039 34.8615 11.0771 35.0993 10.4286C35.337 9.7694 35.6504 9.20203 36.0395 8.72653C36.4393 8.25102 36.8986 7.88358 37.4174 7.62421C37.9361 7.35404 38.4873 7.21895 39.0708 7.21895C39.6652 7.21895 40.1191 7.36484 40.4325 7.65663C40.7567 7.94842 40.9188 8.32667 40.9188 8.79137C40.9188 9.25607 40.8 9.63972 40.5622 9.94232C40.3353 10.2341 40.0381 10.4827 39.6706 10.688C39.3032 10.8825 38.8925 11.0608 38.4386 11.2229C37.9955 11.3742 37.5579 11.5472 37.1256 11.7417V12.1469C37.1364 12.536 37.2985 12.8116 37.6119 12.9737C37.9253 13.1358 38.2819 13.2222 38.6818 13.2331ZM38.4062 8.66168C37.8442 8.66168 37.4552 9.31551 37.2391 10.6232C37.466 10.4719 37.6767 10.3368 37.8713 10.2179C38.0766 10.099 38.2549 9.98554 38.4062 9.87747C38.7304 9.63972 38.8979 9.36954 38.9087 9.06695C38.9087 8.79677 38.7412 8.66168 38.4062 8.66168ZM45.2465 15.0486C44.1658 15.0486 43.6255 14.0382 43.6255 12.0173C43.6255 10.9149 43.7606 9.9153 44.0308 9.01832C44.4522 7.63502 44.9277 6.94337 45.4573 6.94337C45.7707 6.94337 46.0192 7.15411 46.203 7.57558C46.3543 7.89979 46.4245 8.2186 46.4137 8.532C46.4137 8.96428 46.284 9.72618 46.0246 10.8177C45.7761 11.7687 45.6518 12.3577 45.6518 12.5846C45.6518 12.8116 45.7058 12.9683 45.8139 13.0547C45.9328 13.1412 46.0679 13.1844 46.2192 13.1844C46.3813 13.1844 46.5812 13.0818 46.819 12.8764C47.0567 12.6711 47.2945 12.4495 47.5322 12.2118C47.77 11.9632 47.9861 11.7363 48.1806 11.5309C48.386 11.3256 48.5265 11.2229 48.6021 11.2229C48.7534 11.2229 48.8291 11.4067 48.8291 11.7741C48.8291 12.5306 48.4454 13.2709 47.6781 13.9949C46.9216 14.7082 46.1111 15.0594 45.2465 15.0486ZM45.9112 5.63032C45.6194 5.19804 45.4735 4.73333 45.4735 4.23621C45.4735 3.73909 45.5491 3.32842 45.7004 3.00421C45.8625 2.66919 46.0138 2.42604 46.1543 2.27474C46.2948 2.11263 46.4569 2.03158 46.6406 2.03158C46.9432 2.03158 47.2188 2.25853 47.4674 2.71242C47.7159 3.15551 47.8402 3.52835 47.8402 3.83095C47.8402 4.39291 47.6403 4.836 47.2404 5.16021C46.8514 5.47361 46.4083 5.63032 45.9112 5.63032Z" fill="white"/>
</g>
<defs>
<clipPath id="clip0_1829_45560">
<rect width="52" height="20" fill="white"/>
</clipPath>
</defs>
</svg>
