<svg width="14" height="14" viewBox="0 0 14 14" fill="none" xmlns="http://www.w3.org/2000/svg">
<g clip-path="url(#clip0_1829_45554)">
<mask id="mask0_1829_45554" style="mask-type:luminance" maskUnits="userSpaceOnUse" x="0" y="0" width="14" height="14">
<path d="M14 0H0V14H14V0Z" fill="white"/>
</mask>
<g mask="url(#mask0_1829_45554)">
<path d="M6.9987 10.5006C5.0657 10.5006 3.4987 8.93364 3.4987 7.00065C3.4987 5.06765 5.0657 3.50065 6.9987 3.50065C8.93169 3.50065 10.4987 5.06765 10.4987 7.00065C10.4987 8.93364 8.93169 10.5006 6.9987 10.5006ZM6.9987 9.33398C8.28734 9.33398 9.33203 8.28929 9.33203 7.00065C9.33203 5.71199 8.28734 4.66732 6.9987 4.66732C5.71003 4.66732 4.66536 5.71199 4.66536 7.00065C4.66536 8.28929 5.71003 9.33398 6.9987 9.33398ZM6.41536 0.583984H7.58203V2.33398H6.41536V0.583984ZM6.41536 11.6673H7.58203V13.4173H6.41536V11.6673ZM2.04895 2.87586L2.87391 2.0509L4.11134 3.28834L3.28639 4.1133L2.04895 2.87586ZM9.88602 10.7129L10.7111 9.88797L11.9485 11.1254L11.1235 11.9504L9.88602 10.7129ZM11.1235 2.0509L11.9485 2.87586L10.7111 4.1133L9.88602 3.28834L11.1235 2.0509ZM3.28639 9.88797L4.11134 10.7129L2.87391 11.9504L2.04895 11.1254L3.28639 9.88797ZM13.4154 6.41732V7.58398H11.6654V6.41732H13.4154ZM2.33203 6.41732V7.58398H0.582031V6.41732H2.33203Z" fill="#E8E8F6"/>
</g>
</g>
<defs>
<clipPath id="clip0_1829_45554">
<rect width="14" height="14" fill="white"/>
</clipPath>
</defs>
</svg>
