<svg width="536" height="120" viewBox="0 0 536 120" fill="none" xmlns="http://www.w3.org/2000/svg">
<g clip-path="url(#clip0_1829_45530)">
<path d="M83 55C83.5523 55 84 54.5523 84 54C84 53.4477 83.5523 53 83 53C82.4477 53 82 53.4477 82 54C82 54.5523 82.4477 55 83 55Z" fill="white" fill-opacity="0.2"/>
<path d="M137 70C137.552 70 138 69.5523 138 69C138 68.4477 137.552 68 137 68C136.448 68 136 68.4477 136 69C136 69.5523 136.448 70 137 70Z" fill="white" fill-opacity="0.4"/>
<path d="M1 120C1.55228 120 2 119.552 2 119C2 118.448 1.55228 118 1 118C0.447715 118 0 118.448 0 119C0 119.552 0.447715 120 1 120Z" fill="white" fill-opacity="0.1"/>
<path d="M3 100C3.55228 100 4 99.5523 4 99C4 98.4477 3.55228 98 3 98C2.44772 98 2 98.4477 2 99C2 99.5523 2.44772 100 3 100Z" fill="white" fill-opacity="0.3"/>
<path d="M81 92C81.5523 92 82 91.5523 82 91C82 90.4477 81.5523 90 81 90C80.4477 90 80 90.4477 80 91C80 91.5523 80.4477 92 81 92Z" fill="white" fill-opacity="0.2"/>
<path d="M178.5 35C178.776 35 179 34.7761 179 34.5C179 34.2239 178.776 34 178.5 34C178.224 34 178 34.2239 178 34.5C178 34.7761 178.224 35 178.5 35Z" fill="white" fill-opacity="0.2"/>
<path d="M323.5 79C323.776 79 324 78.7761 324 78.5C324 78.2239 323.776 78 323.5 78C323.224 78 323 78.2239 323 78.5C323 78.7761 323.224 79 323.5 79Z" fill="white" fill-opacity="0.4"/>
<path d="M535.5 117C535.776 117 536 116.776 536 116.5C536 116.224 535.776 116 535.5 116C535.224 116 535 116.224 535 116.5C535 116.776 535.224 117 535.5 117Z" fill="white" fill-opacity="0.2"/>
<path d="M456.5 48C457.328 48 458 47.3284 458 46.5C458 45.6716 457.328 45 456.5 45C455.672 45 455 45.6716 455 46.5C455 47.3284 455.672 48 456.5 48Z" fill="white" fill-opacity="0.2"/>
<path d="M242 2C242.552 2 243 1.55228 243 1C243 0.447715 242.552 0 242 0C241.448 0 241 0.447715 241 1C241 1.55228 241.448 2 242 2Z" fill="white" fill-opacity="0.4"/>
<path d="M277 49C277.552 49 278 48.5523 278 48C278 47.4477 277.552 47 277 47C276.448 47 276 47.4477 276 48C276 48.5523 276.448 49 277 49Z" fill="white" fill-opacity="0.2"/>
<path d="M305 18C305.552 18 306 17.5523 306 17C306 16.4477 305.552 16 305 16C304.448 16 304 16.4477 304 17C304 17.5523 304.448 18 305 18Z" fill="white" fill-opacity="0.6"/>
<path d="M223 61C223.552 61 224 60.5523 224 60C224 59.4477 223.552 59 223 59C222.448 59 222 59.4477 222 60C222 60.5523 222.448 61 223 61Z" fill="white" fill-opacity="0.6"/>
<path d="M441.5 89C441.776 89 442 88.7761 442 88.5C442 88.2239 441.776 88 441.5 88C441.224 88 441 88.2239 441 88.5C441 88.7761 441.224 89 441.5 89Z" fill="white" fill-opacity="0.6"/>
<path d="M203.5 90C203.776 90 204 89.7761 204 89.5C204 89.2239 203.776 89 203.5 89C203.224 89 203 89.2239 203 89.5C203 89.7761 203.224 90 203.5 90Z" fill="white" fill-opacity="0.8"/>
<path d="M396 80C396.552 80 397 79.5523 397 79C397 78.4477 396.552 78 396 78C395.448 78 395 78.4477 395 79C395 79.5523 395.448 80 396 80Z" fill="white" fill-opacity="0.2"/>
<path d="M376 56C376.552 56 377 55.5523 377 55C377 54.4477 376.552 54 376 54C375.448 54 375 54.4477 375 55C375 55.5523 375.448 56 376 56Z" fill="white" fill-opacity="0.2"/>
<path d="M483 108C483.552 108 484 107.552 484 107C484 106.448 483.552 106 483 106C482.448 106 482 106.448 482 107C482 107.552 482.448 108 483 108Z" fill="white" fill-opacity="0.1"/>
<path d="M493 83C493.552 83 494 82.5523 494 82C494 81.4477 493.552 81 493 81C492.448 81 492 81.4477 492 82C492 82.5523 492.448 83 493 83Z" fill="white" fill-opacity="0.1"/>
</g>
<defs>
<clipPath id="clip0_1829_45530">
<rect width="536" height="120" fill="white"/>
</clipPath>
</defs>
</svg>
